<svg width="17" height="18" viewBox="0 0 17 18" fill="none" xmlns="http://www.w3.org/2000/svg">
<path fill-rule="evenodd" clip-rule="evenodd" d="M8.66667 2.25C4.93875 2.25 1.91667 5.27208 1.91667 9C1.91667 12.7279 4.93875 15.75 8.66667 15.75C12.3946 15.75 15.4167 12.7279 15.4167 9C15.4167 5.27208 12.3946 2.25 8.66667 2.25ZM0.416672 9C0.416672 4.44365 4.11032 0.75 8.66667 0.75C13.223 0.75 16.9167 4.44365 16.9167 9C16.9167 13.5563 13.223 17.25 8.66667 17.25C4.11032 17.25 0.416672 13.5563 0.416672 9Z" fill="white"/>
<path fill-rule="evenodd" clip-rule="evenodd" d="M8.66667 3.75C9.08088 3.75 9.41667 4.08579 9.41667 4.5V8.53647L12.0021 9.82918C12.3726 10.0144 12.5227 10.4649 12.3375 10.8354C12.1523 11.2059 11.7017 11.3561 11.3313 11.1708L8.33126 9.67082C8.07717 9.54378 7.91667 9.28408 7.91667 9V4.5C7.91667 4.08579 8.25246 3.75 8.66667 3.75Z" fill="white"/>
</svg>
