<svg width="18" height="14" viewBox="0 0 18 14" fill="none" xmlns="http://www.w3.org/2000/svg">
<path fill-rule="evenodd" clip-rule="evenodd" d="M2.25 1.75C1.83579 1.75 1.5 2.08579 1.5 2.5V11.5C1.5 11.9142 1.83579 12.25 2.25 12.25H15.75C16.1642 12.25 16.5 11.9142 16.5 11.5V2.5C16.5 2.08579 16.1642 1.75 15.75 1.75H2.25ZM0 2.5C0 1.25736 1.00736 0.25 2.25 0.25H15.75C16.9926 0.25 18 1.25736 18 2.5V11.5C18 12.7426 16.9926 13.75 15.75 13.75H2.25C1.00736 13.75 0 12.7426 0 11.5V2.5Z" fill="white"/>
<path fill-rule="evenodd" clip-rule="evenodd" d="M0 5.5C0 5.08579 0.335786 4.75 0.75 4.75H17.25C17.6642 4.75 18 5.08579 18 5.5C18 5.91421 17.6642 6.25 17.25 6.25H0.75C0.335786 6.25 0 5.91421 0 5.5Z" fill="white"/>
</svg>
